<svg width="256" height="256" viewBox="0 0 256 256" fill="none" xmlns="http://www.w3.org/2000/svg">
<circle cx="127.5" cy="127.5" r="103.5" fill="#E9D6C4"/>
<g clip-path="url(#clip0_2_6)">
<path d="M180 151.224V72.9627C180 69.8649 177.492 67.3727 174.375 67.3727H97.5C85.0781 67.3727 75 77.3882 75 89.7329V164.267C75 176.612 85.0781 186.627 97.5 186.627H174.375C177.492 186.627 180 184.135 180 181.037V177.311C180 175.564 179.18 173.98 177.914 172.955C176.93 169.368 176.93 159.143 177.914 155.556C179.18 154.554 180 152.971 180 151.224ZM105 98.5839C105 97.8152 105.633 97.1863 106.406 97.1863H156.094C156.867 97.1863 157.5 97.8152 157.5 98.5839V103.242C157.5 104.011 156.867 104.64 156.094 104.64H106.406C105.633 104.64 105 104.011 105 103.242V98.5839ZM105 113.491C105 112.722 105.633 112.093 106.406 112.093H156.094C156.867 112.093 157.5 112.722 157.5 113.491V118.149C157.5 118.918 156.867 119.547 156.094 119.547H106.406C105.633 119.547 105 118.918 105 118.149V113.491ZM164.391 171.721H97.5C93.3516 171.721 90 168.39 90 164.267C90 160.168 93.375 156.814 97.5 156.814H164.391C163.945 160.797 163.945 167.738 164.391 171.721Z" fill="#8E5C2C"/>
</g>
<defs>
<clipPath id="clip0_2_6">
<rect width="105" height="120" fill="white" transform="translate(75 67)"/>
</clipPath>
</defs>
</svg>
