<svg width="20" height="20" viewBox="0 0 20 20" fill="none" xmlns="http://www.w3.org/2000/svg">
    <path
        d="M9.99998 1.66675C7.70248 1.66675 5.83331 3.53591 5.83331 5.83342V8.33342H4.99998C4.08081 8.33342 3.33331 9.08091 3.33331 10.0001V16.6667C3.33331 17.5859 4.08081 18.3334 4.99998 18.3334H15C15.9191 18.3334 16.6666 17.5859 16.6666 16.6667V10.0001C16.6666 9.08091 15.9191 8.33342 15 8.33342H14.1666V5.83342C14.1666 3.53591 12.2975 1.66675 9.99998 1.66675ZM15 10.0001L15.0016 16.6667H4.99998V10.0001H15ZM7.49998 8.33342V5.83342C7.49998 4.45508 8.62165 3.33341 9.99998 3.33341C11.3783 3.33341 12.5 4.45508 12.5 5.83342V8.33342H7.49998Z"
        fill="#676A74" />
</svg>
